<svg width="209" height="48" viewBox="0 0 209 48" fill="none" xmlns="http://www.w3.org/2000/svg">
<path d="M4.06445 23.9637L3.7573 9.95771C2.07821 9.46627 1.23867 8.2991 1.23867 6.4562C1.23867 5.2276 2.11917 4.10138 3.88016 3.07755C5.68211 2.05372 7.72977 1.31656 10.0232 0.866067C12.3165 0.374628 14.4871 0.128909 16.5347 0.128909C20.5482 0.128909 24.1316 0.804639 27.285 2.1561C30.4794 3.50756 33.0389 5.3095 34.9637 7.56194C38.8543 12.1897 40.7996 17.7184 40.7996 24.148C40.7996 30.332 38.9157 35.7378 35.148 40.3656C33.3051 42.6589 30.8275 44.5018 27.715 45.8943C24.6435 47.2457 20.9782 47.9215 16.719 47.9215C12.4599 47.9215 8.77408 47.3072 5.66163 46.0785C2.54918 44.8499 0.99295 43.3142 0.99295 41.4713C0.99295 39.6284 1.95535 38.4817 3.88016 38.0312L4.06445 23.9637ZM32.138 23.9023C32.138 19.4794 30.7865 15.6912 28.0836 12.5378C25.4216 9.38436 21.572 7.80766 16.5347 7.80766C15.1423 7.80766 13.8318 7.99195 12.6032 8.36053C12.4804 10.8587 12.4189 15.9778 12.4189 23.718C12.4189 31.4582 12.5008 36.8026 12.6647 39.7513C13.9752 40.0379 15.4495 40.1813 17.0876 40.1813C20.4048 40.1813 23.2306 39.3827 25.565 37.7855C29.947 34.714 32.138 30.0863 32.138 23.9023ZM81.6131 0.00604698C83.2922 0.00604698 84.6027 0.702254 85.5446 2.09467C86.5275 3.44613 87.019 5.16617 87.019 7.25479C87.019 9.30246 86.4456 15.0564 85.2989 24.5166C85.2989 26.7281 85.5242 29.6563 85.9746 33.3011C86.4661 36.905 87.1009 38.9731 87.879 39.5055C88.6161 39.997 89.1485 40.3041 89.4761 40.427C89.8038 40.5498 90.029 40.6522 90.1519 40.7341C90.3566 40.9389 90.459 41.3484 90.459 41.9627C90.459 43.519 89.9266 44.8909 88.8618 46.0785C87.7971 47.2662 86.4046 47.86 84.6846 47.86C83.0055 47.86 81.6131 47.1433 80.5074 45.71C79.4016 44.2356 78.644 42.3723 78.2345 40.1198C74.4258 45.3209 69.9619 47.9215 64.8427 47.9215C62.0988 47.9215 59.6416 47.2252 57.4711 45.8328C55.3006 44.3995 53.5806 42.5361 52.311 40.2427C49.7309 35.574 48.4409 30.3934 48.4409 24.7009C48.4409 17.9846 50.2429 12.1897 53.8467 7.31622C57.4506 2.44277 62.1193 0.00604698 67.8528 0.00604698C71.211 0.00604698 74.4053 0.907021 77.4359 2.70897C78.0502 0.907021 79.4426 0.00604698 81.6131 0.00604698ZM77.5587 25.0695L77.2516 11.5549C74.3439 9.05674 71.211 7.80766 67.8528 7.80766C65.027 7.80766 62.5289 9.42532 60.3583 12.6606C58.2288 15.855 57.164 19.7251 57.164 24.2709C57.164 28.8167 57.8602 32.6049 59.2526 35.6354C60.686 38.625 62.6517 40.1198 65.1499 40.1198C67.689 40.1198 70.2486 38.4408 72.8286 35.0826C75.4496 31.7244 77.0263 28.3867 77.5587 25.0695ZM100.203 40.9799L100.694 24.2709C100.694 22.387 100.551 17.8617 100.264 10.6949C98.79 9.8758 98.0528 8.5653 98.0528 6.76335C98.0528 5.49379 98.6671 4.38805 99.8957 3.44613C101.124 2.5042 102.66 1.78752 104.503 1.29608C107.943 0.436058 111.137 0.00604698 114.086 0.00604698C120.434 0.00604698 125.266 1.52132 128.584 4.55187C131.901 7.54146 133.559 11.2068 133.559 15.5478C133.559 19.8889 131.901 23.5747 128.584 26.6052C125.307 29.6358 121.069 31.1511 115.868 31.1511C112.755 31.1511 110.523 31.0692 109.172 30.9053L109.54 40.9799C109.54 45.4028 107.984 47.6143 104.872 47.6143C101.759 47.6143 100.203 45.4028 100.203 40.9799ZM109.049 22.7966C111.465 23.2471 113.82 23.4723 116.113 23.4723C118.448 23.4723 120.475 22.7556 122.195 21.3223C123.956 19.8479 124.836 17.9641 124.836 15.6707C124.836 13.3364 123.915 11.4525 122.072 10.0191C120.229 8.54482 117.669 7.80766 114.393 7.80766C112.591 7.80766 110.912 8.05338 109.356 8.54482C109.151 13.5821 109.049 18.3327 109.049 22.7966ZM140.576 40.9799L141.068 24.2709C141.068 22.387 140.924 17.8617 140.638 10.6949C139.163 9.8758 138.426 8.5653 138.426 6.76335C138.426 5.49379 139.041 4.38805 140.269 3.44613C141.498 2.5042 143.034 1.78752 144.876 1.29608C148.316 0.436058 151.511 0.00604698 154.459 0.00604698C160.807 0.00604698 165.64 1.52132 168.957 4.55187C172.274 7.54146 173.933 11.2068 173.933 15.5478C173.933 19.8889 172.274 23.5747 168.957 26.6052C165.681 29.6358 161.442 31.1511 156.241 31.1511C153.129 31.1511 150.897 31.0692 149.545 30.9053L149.914 40.9799C149.914 45.4028 148.357 47.6143 145.245 47.6143C142.133 47.6143 140.576 45.4028 140.576 40.9799ZM149.422 22.7966C151.838 23.2471 154.193 23.4723 156.487 23.4723C158.821 23.4723 160.848 22.7556 162.568 21.3223C164.329 19.8479 165.21 17.9641 165.21 15.6707C165.21 13.3364 164.288 11.4525 162.445 10.0191C160.602 8.54482 158.043 7.80766 154.767 7.80766C152.965 7.80766 151.286 8.05338 149.729 8.54482C149.525 13.5821 149.422 18.3327 149.422 22.7966ZM188.69 25.3766C188.69 25.3766 188.854 30.6187 189.181 41.1027C189.181 45.5257 187.646 47.7372 184.574 47.7372C181.134 47.7372 179.414 45.1366 179.414 39.9355C179.414 36.2497 179.946 30.7006 181.011 23.288C181.011 21.3632 180.786 18.435 180.335 14.5035C179.885 10.572 179.66 7.70528 179.66 5.90333C179.66 4.06043 180.069 2.66801 180.888 1.72609C181.707 0.743207 182.834 0.251767 184.267 0.251767C185.741 0.251767 186.867 0.804638 187.646 1.91038C188.465 3.01612 188.874 4.55187 188.874 6.51763C190.144 4.59282 191.72 3.03659 193.604 1.84895C195.529 0.6613 197.7 0.0674762 200.116 0.0674762C202.532 0.0674762 204.498 0.681777 206.013 1.91038C207.528 3.13898 208.286 4.49044 208.286 5.96476C208.286 7.39812 207.836 8.5653 206.935 9.46627C206.034 10.3672 205.03 10.8177 203.925 10.8177C202.819 10.8177 201.672 10.3468 200.484 9.40484C199.338 8.42196 198.56 7.93052 198.15 7.93052C196.717 7.93052 194.935 9.89628 192.806 13.8278C190.676 17.7184 189.304 21.568 188.69 25.3766Z" fill="white"/>
</svg>
