<svg width="14" height="8" viewBox="0 0 14 8" fill="none" xmlns="http://www.w3.org/2000/svg">
<path d="M13.723 1.58525L7.51715 7.79724C7.44327 7.87097 7.36324 7.92307 7.27704 7.95355C7.19085 7.98452 7.0985 8 7 8C6.90149 8 6.80915 7.98452 6.72295 7.95355C6.63676 7.92307 6.55673 7.87097 6.48285 7.79724L0.258575 1.58525C0.0861917 1.41321 0 1.19816 0 0.940092C0 0.682027 0.0923483 0.46083 0.277045 0.276498C0.461741 0.0921659 0.677221 0 0.923483 0C1.16974 0 1.38522 0.0921659 1.56992 0.276498L7 5.69585L12.4301 0.276498C12.6025 0.104455 12.8147 0.0184331 13.0669 0.0184331C13.3196 0.0184331 13.5383 0.110599 13.723 0.294931C13.9077 0.479262 14 0.694316 14 0.940092C14 1.18587 13.9077 1.40092 13.723 1.58525Z" fill="white"/>
</svg>
